Coordinates
version=1
nRows=19
nColumns=24
inDegrees=yes

Units are S.I. units (second, meters, Newtons, ...)
Angles are in degrees.

endheader
time	pelvis_tilt	pelvis_list	pelvis_rotation	pelvis_tx	pelvis_ty	pelvis_tz	hip_flexion_r	hip_adduction_r	hip_rotation_r	knee_angle_r	ankle_angle_r	subtalar_angle_r	mtp_angle_r	hip_flexion_l	hip_adduction_l	hip_rotation_l	knee_angle_l	ankle_angle_l	subtalar_angle_l	mtp_angle_l	lumbar_extension	lumbar_bending	lumbar_rotation
      1.02516667	     -2.96606415	     -4.07249242	     -5.16559796	     -0.11998313	      0.88042376	      0.32843754	    -14.59361907	      8.71681417	      2.40732300	     -8.60467698	     19.13032090	     10.76210740	      7.78394991	     31.17622736	     -5.38120146	    -10.98958235	     -5.85462069	      4.79157223	     -0.94674605	      2.74482502	     -4.82076106	      4.20922107	     12.06263372
      1.02933333	     -3.02140811	     -3.97901980	     -5.36857630	     -0.11419305	      0.87946173	      0.32861374	    -14.63391859	      8.53955652	      2.61569812	     -9.22541162	     19.24588185	     10.73068763	      7.91483511	     31.25427823	     -5.34583067	    -10.82492203	     -6.28799303	      4.61195354	     -0.96714904	      2.79834011	     -4.75020041	      4.01275717	     12.07861227
      1.03350000	     -3.08171046	     -3.87751824	     -5.53659299	     -0.10836720	      0.87852140	      0.32867848	    -14.61644236	      8.34683336	      2.62769592	     -9.94360602	     19.35563764	     10.95219042	      8.28481977	     31.36094481	     -5.28328413	    -10.62798850	     -6.83115926	      4.41065600	     -1.05443887	      2.96383518	     -4.66654599	      3.83260122	     12.22561681
      1.03766667	     -3.10784891	     -3.74868740	     -5.70796196	     -0.10248245	      0.87770471	      0.32874659	    -14.61686792	      8.12067198	      2.65602325	    -10.70265055	     19.43908358	     11.10600031	      8.96900999	     31.39231781	     -5.18507118	    -10.38956702	     -7.35864294	      4.17323450	     -1.20881296	      3.28137419	     -4.62038993	      3.60496109	     12.31241710
      1.04183333	     -3.06669719	     -3.61195723	     -5.84664584	     -0.09649149	      0.87705917	      0.32882599	    -14.75671719	      7.89699050	      2.80153476	    -11.32101760	     19.38791513	     11.02357364	      9.04301019	     31.38297053	     -5.07880060	    -10.26977289	     -8.01413542	      3.91550974	     -1.28035227	      3.31217880	     -4.65243921	      3.35027740	     12.29926065
      1.04600000	     -3.08546493	     -3.45476895	     -5.99269099	     -0.09047181	      0.87638752	      0.32885247	    -14.75805540	      7.64348357	      2.82857370	    -12.07633981	     19.27866055	     11.09888799	     12.75384170	     31.40074837	     -4.93682745	    -10.03240335	     -8.62268145	      3.49972060	     -1.62404587	      5.02801886	     -4.56593648	      3.06607282	     12.31132446
      1.05016667	     -3.06748826	     -3.29461612	     -6.14433492	     -0.08441379	      0.87583525	      0.32889815	    -14.79151741	      7.38586263	      2.91587018	    -12.85665117	     19.20147278	     11.12371603	     12.79393267	     31.40328321	     -4.80769505	     -9.92280322	     -9.33404750	      3.16461470	     -1.78123900	      5.04606494	     -4.54104928	      2.78568579	     12.35342229
      1.05433333	     -3.05844150	     -3.12008730	     -6.27224007	     -0.07829749	      0.87533050	      0.32888027	    -14.79086690	      7.11312043	      2.93622821	    -13.67741539	     19.06243796	     11.20291919	     12.88797565	     31.40978124	     -4.64361524	     -9.76405409	    -10.05422414	      2.75385455	     -2.09363681	      5.07807417	     -4.48735150	      2.48971831	     12.38007389
      1.05850000	     -3.03642232	     -2.93324517	     -6.38253750	     -0.07212530	      0.87490455	      0.32882079	    -14.78655193	      6.82678170	      2.92849079	    -14.52829939	     18.86747773	     11.28123149	     13.04787380	     31.39682006	     -4.45142256	     -9.58337894	    -10.78114310	      2.29990340	     -2.50893762	      5.12370364	     -4.43720361	      2.18035967	     12.38107499
      1.06266667	     -2.98085725	     -2.75407019	     -6.44886456	     -0.06592425	      0.87457160	      0.32865407	    -14.79843534	      6.54544908	      2.83810868	    -15.41050606	     18.62365715	     11.43576066	     13.49466816	     31.34840695	     -4.22585051	     -9.29539397	    -11.51253236	      1.82093363	     -3.12991303	      5.24112861	     -4.44150931	      1.90114668	     12.36542933
      1.06683333	     -2.95448569	     -2.55806051	     -6.53082145	     -0.05966977	      0.87427912	      0.32851696	    -14.75352650	      6.25065910	      2.79856407	    -16.33647326	     18.28234048	     11.48566810	     14.18653802	     31.33062562	     -4.00114566	     -9.09302500	    -12.26527671	      1.33680732	     -3.67981558	      5.39985005	     -4.38760775	      1.58566296	     12.31815603
      1.07100000	     -2.88978530	     -2.35658568	     -6.58503629	     -0.05332868	      0.87410338	      0.32837011	    -14.76161862	      5.95527549	      2.76421797	    -17.22050257	     17.78240197	     11.40489750	     18.23024372	     31.30010616	     -3.77602063	     -9.01877532	    -13.09354794	      0.86813966	     -4.04760697	      6.22219443	     -4.36244052	      1.24218862	     12.26282105
      1.07516667	     -2.86005388	     -2.15842994	     -6.64667574	     -0.04698385	      0.87394681	      0.32821219	    -14.68529379	      5.66695437	      2.74741204	    -18.19946111	     17.28347537	     11.36858334	     18.27869981	     31.30188802	     -3.55721584	     -8.93356935	    -13.92175380	      0.43886028	     -4.42954607	      6.22198465	     -4.29158749	      0.90996927	     12.19995231
      1.07933333	     -2.82417444	     -1.96426723	     -6.66260566	     -0.04065274	      0.87382590	      0.32792538	    -14.56681468	      5.38007063	      2.62107820	    -19.26761838	     16.83276002	     11.42566188	     18.47064664	     31.29735434	     -3.29510491	     -8.69684934	    -14.73405051	     -0.04030283	     -5.09913998	      6.22478074	     -4.24159620	      0.61671518	     12.10591129
      1.08350000	     -2.75955714	     -1.75361999	     -6.67915511	     -0.03425880	      0.87382958	      0.32761798	    -14.45642754	      5.06540727	      2.48657483	    -20.36212803	     16.23998169	     11.50710246	     18.91940108	     31.24350384	     -3.01104655	     -8.48617057	    -15.52854948	     -0.40830635	     -5.73619365	      6.22843635	     -4.21993339	      0.28779223	     11.99301371
      1.08766667	     -2.71996949	     -1.54618699	     -6.68655736	     -0.02782422	      0.87385881	      0.32734896	    -14.30165148	      4.77017368	      2.39560396	    -21.47762709	     15.53516776	     11.44704490	     19.10976690	     31.24166587	     -2.75948967	     -8.41681808	    -16.38749342	     -0.73485243	     -6.04147151	      6.22151374	     -4.14482716	     -0.06476443	     11.90732567
      1.09183333	     -2.65467726	     -1.33616075	     -6.66410127	     -0.02141702	      0.87395780	      0.32693102	    -14.11073808	      4.45088813	      2.17626137	    -22.69339427	     14.79166934	     11.46693377	     23.79008482	     31.19486941	     -2.45319149	     -8.19765282	    -17.19899328	     -1.04727800	     -6.65367575	      6.07820943	     -4.12777896	     -0.37069034	     11.78258195
      1.09600000	     -2.61789404	     -1.14251308	     -6.63850551	     -0.01500539	      0.87407363	      0.32653292	    -13.85967454	      4.16047516	      2.00374091	    -23.96228150	     14.01940537	     11.48217510	     23.87235343	     31.19093152	     -2.18101047	     -8.03972349	    -18.04920960	     -1.27938868	     -7.08465376	      6.05973387	     -4.06519152	     -0.66195121	     11.63833272
      1.10016667	     -2.56814915	     -0.93057054	     -6.60238386	     -0.00858043	      0.87426380	      0.32608234	    -13.57766398	      3.83870185	      1.78696542	    -25.29702269	     13.19745957	     11.53408259	     24.04213668	     31.15333069	     -1.87480319	     -7.86037977	    -18.86168996	     -1.45590181	     -7.53758007	      6.02805329	     -4.01652578	     -0.98093615	     11.49045209
